<svg id="Layer_1" data-name="Layer 1" xmlns="http://www.w3.org/2000/svg" viewBox="0 0 1280 640"><defs><style>.cls-1{fill:#fff;}</style></defs><path class="cls-1" d="M351.6,305.75q-30.17,0-52.78-6.9T261.12,279a77.49,77.49,0,0,1-22.19-31.24q-7.11-18.31-6.25-40.72l64.63-14.22q.85,19.83,8.4,32.1a45.39,45.39,0,0,0,20.47,18.1A69.47,69.47,0,0,0,355,248.87a73.52,73.52,0,0,0,22.84-3.23q9.9-3.22,15.73-9A18.65,18.65,0,0,0,399.42,223a21.45,21.45,0,0,0-7.75-17q-7.76-6.67-21.33-11.42t-30.81-9.48Q321,179.94,302.7,173.69A158,158,0,0,1,269.3,158,74.94,74.94,0,0,1,245,133.41q-9.27-15.07-9.26-37.49,0-27.57,14-47t38.78-29.51Q313.25,9.32,345.14,9.32q33.6,0,59.88,11.42t40.5,33.39q14.22,22,11.21,53.86L393,118.33a70.64,70.64,0,0,0-2.59-22.84,43.57,43.57,0,0,0-9.26-16.8,40.79,40.79,0,0,0-15.72-10.56q-9.5-3.66-22.41-3.66-13.37,0-22.19,3.45T307.44,77.4a22.33,22.33,0,0,0-4.53,13.78,19.21,19.21,0,0,0,6.9,15.08q6.88,6,19.81,10.56t30.59,9.26q18.53,5.17,37.27,11.42a157.65,157.65,0,0,1,34.69,16.37,79.51,79.51,0,0,1,25.63,26.07q9.7,15.94,9.7,40.5,0,28.44-14.87,47.39T411.7,296.27Q385.63,305.74,351.6,305.75Z"/><path class="cls-1" d="M490.33,299.72V72.23h59v92.63h3.44q2.6-33.62,11.21-55.37T588.56,77q15.95-10.75,40.5-10.77,37.05,0,55.8,24.56T703.6,164V299.72H633.8V173q0-23.26-7.11-34.89t-22.61-11.64a32.87,32.87,0,0,0-22.84,9q-9.91,9-15.51,29.3t-5.6,54.29v80.57Z"/><path class="cls-1" d="M792.78,305.75a89.75,89.75,0,0,1-32.74-6,56,56,0,0,1-25.42-19.61q-9.92-13.58-9.91-36.41,0-21.09,8.19-34.25a61.88,61.88,0,0,1,22-21.11A116.31,116.31,0,0,1,785,176.28q16.37-4.09,32.31-7.11,22.39-4.3,33.61-6.9t15.3-6a11.73,11.73,0,0,0,4.09-9.48q0-12.49-9.26-18.95t-24.35-6.47a55,55,0,0,0-19,3.45,31.52,31.52,0,0,0-15.52,12.28q-6,8.84-5.6,25.2l-62-4.31q-.87-27.14,8.19-45a70.16,70.16,0,0,1,24.77-28A107.84,107.84,0,0,1,802.05,70.5a166,166,0,0,1,37.27-4.31q34,0,56,12.71a77.11,77.11,0,0,1,32.53,36.63q10.54,23.91,10.55,57.95V299.72H878.09V234.66h-2.58A73.91,73.91,0,0,1,862.8,270.2a81,81,0,0,1-28.87,25.85Q816.05,305.76,792.78,305.75Zm28.87-50.84a49.82,49.82,0,0,0,15.73-2.8,47.72,47.72,0,0,0,15.94-9.27q7.53-6.45,12.28-17.88t4.74-28.22V186.4L882,185.11q-3.45,5.61-11.42,9a86.74,86.74,0,0,1-17.88,5.38q-9.92,2-20,3.88a114.88,114.88,0,0,0-18.74,5.17,38.47,38.47,0,0,0-14,8.62q-5.4,5.39-5.39,14.86,0,11.2,8,17T821.65,254.91Z"/><path class="cls-1" d="M966.42,569.27l.43-416v-81H1028v70.22h3q4.73-25.41,14.22-42.44t24.34-25.42q14.87-8.4,36-8.4,26.7,0,45.45,13.57t28.44,40.07q9.69,26.51,9.69,65.28,0,41.79-11,68.51t-30,39.42q-19,12.7-43.09,12.71-19.38,0-34.25-8.19t-24.56-25.2q-9.69-17-13.57-42.87h-3.88q2.16,12.49,3.88,26.06t2.8,26.72q1.08,13.14,1.08,25.2l-1.34,261.8Zm112.45-320.83q13.79,0,22.62-8.61t12.93-22.62a105,105,0,0,0,4.09-29.52,101.43,101.43,0,0,0-4.52-31.23q-4.53-14-13.36-22.41a30.37,30.37,0,0,0-21.76-8.4,37.09,37.09,0,0,0-15.94,3.66,39.07,39.07,0,0,0-13.79,11.21,58.41,58.41,0,0,0-9.69,19.17q-3.66,11.63-3.66,28v2.59a85.85,85.85,0,0,0,2.58,22.4,60.82,60.82,0,0,0,6.9,16.38,41.87,41.87,0,0,0,9.9,11.2,38.41,38.41,0,0,0,11.64,6.25A39.27,39.27,0,0,0,1078.87,248.44Z"/><path class="cls-1" d="M195.1,568.64q-40.08,0-59.68-20.47t-19.6-63.55V390.26h-25V346.32h1.29q26.72-3.45,37.92-17.89t13.78-43.73v-.86h40.94V336h52.13v56H184.76v86.17q0,16.38,8,23.26t19.6,6.9a47.9,47.9,0,0,0,12.49-1.73,54.74,54.74,0,0,0,12.07-4.74V562.6a137.3,137.3,0,0,1-23.7,5A179.73,179.73,0,0,1,195.1,568.64Z"/><path class="cls-1" d="M344.17,630.68a208.94,208.94,0,0,1-28.44-2.15,200.79,200.79,0,0,1-31-6.9,152.69,152.69,0,0,1-28.87-12.06l16-70.23A89,89,0,0,0,306.47,560q19.17,6,34.25,6,21.11,0,35.55-8.4A52.79,52.79,0,0,0,398,533.09q7.32-16.15,7.32-39.42V454h-3.88q-.87,30.17-9.69,49.33t-23.91,28.22q-15.09,9.06-34.9,9-24.56,0-40.72-12.49t-24.34-37.49q-8.19-25-8.19-62.47V336h69.37v74.1q0,36.63,7.76,53.43t24.55,16.8a26.69,26.69,0,0,0,15.3-4.52q6.68-4.53,11-13.79t6.46-23.27a217.1,217.1,0,0,0,2.15-32.53V336h69.37V496.25A193.5,193.5,0,0,1,460.93,540a136.14,136.14,0,0,1-14.22,37,104.86,104.86,0,0,1-23.91,28.65,102.62,102.62,0,0,1-34,18.53Q369.16,630.68,344.17,630.68Z"/><path class="cls-1" d="M495,627.23V336h61.18V406.2h3q4.74-25.41,14.22-42.43t24.34-25.42q14.87-8.42,36-8.41,26.7,0,45.45,13.58t28.44,40.06q9.69,26.51,9.69,65.28,0,41.79-11,68.51t-29.95,39.42q-19,12.71-43.08,12.71-19.39,0-34.26-8.19t-24.55-25.2q-9.71-17-13.58-42.87H557q2.15,12.5,3.87,26.06t2.8,26.72q1.08,13.14,1.08,25.2v56Zm112-115q13.78,0,22.63-8.62T642.53,481a104.58,104.58,0,0,0,4.09-29.51,101.15,101.15,0,0,0-4.52-31.24q-4.53-14-13.36-22.41A30.37,30.37,0,0,0,607,389.4,37.13,37.13,0,0,0,591,393.06a39,39,0,0,0-13.78,11.21,58.22,58.22,0,0,0-9.7,19.17q-3.66,11.63-3.66,28V454a85.85,85.85,0,0,0,2.58,22.4,60.87,60.87,0,0,0,6.9,16.38,41.75,41.75,0,0,0,9.91,11.2,38.48,38.48,0,0,0,11.63,6.25A39.28,39.28,0,0,0,607,512.2Z"/><path class="cls-1" d="M850.41,569.5q-32.31,0-54.07-9.26t-35.11-25.42A99.44,99.44,0,0,1,742.05,498a160.3,160.3,0,0,1-5.81-43.52,174.25,174.25,0,0,1,6.24-47,118.66,118.66,0,0,1,19.39-39.86,92.07,92.07,0,0,1,34-27.57q20.9-10.12,50.2-10.13t50.19,10.13a84.48,84.48,0,0,1,33.39,28.22q12.49,18.09,16.16,41.79t-1.08,51.27l-165,2.59V426l111.58-2.15-9,22q2.58-19.8-.65-33.39T869.8,391.77q-8.62-7.11-23.69-7.11-15.95,0-25.42,8.19t-13.36,23q-3.89,14.87-3.88,35.11,0,34.9,11.63,50.84t35.76,15.95q10.35,0,17.24-2.59a27.06,27.06,0,0,0,11.2-7.54,28.16,28.16,0,0,0,6-12.06,57.43,57.43,0,0,0,1.3-16.16l63.76,3.45a82.69,82.69,0,0,1-2.8,29.3,71,71,0,0,1-15.29,28Q921.08,553.13,901,561.31T850.41,569.5Z"/></svg>